<svg id="Capa_1" enable-background="new 0 0 512 512" height="512" viewBox="0 0 512 512" width="512" xmlns="http://www.w3.org/2000/svg"><g><path d="m381.647 278.73-56.661-24.286c19.086-7.811 32.571-26.575 32.571-48.439v-105.39c0-26.874-10.466-52.141-29.472-71.147-19.015-19.003-44.284-29.468-71.154-29.468-55.48 0-100.617 45.136-100.617 100.615v105.391c0 21.673 13.247 40.308 32.106 48.24l-57.048 24.805c-23.68 9.958-38.98 32.995-38.98 58.688v32.766c0 38.639 29.952 70.099 68.399 72.11.434.078.879.126 1.336.126.259 0 .515-.013.767-.039.583.015 1.167.034 1.75.034h15.07c3.788 38.822 36.605 69.264 76.405 69.264 20.929 0 40.487-8.268 55.072-23.281 2.887-2.971 2.818-7.719-.152-10.605-2.973-2.887-7.721-2.817-10.605.153-11.737 12.08-27.475 18.733-44.315 18.733-34.049 0-61.75-27.687-61.776-61.729 0-.012.002-.023.002-.035 0-.014-.002-.028-.002-.043.017-34.049 27.722-61.745 61.776-61.745 34.056 0 61.763 27.699 61.777 61.751v.007c0 .006.001.012.001.019 0 6.27-.934 12.451-2.775 18.372-1.23 3.955.979 8.159 4.934 9.389 3.954 1.23 8.159-.98 9.389-4.934 1.553-4.992 2.574-10.13 3.079-15.346h14.864c.588 0 1.178-.01 1.763-.026.297.036.599.06.906.06.568 0 1.119-.069 1.65-.188 38.183-2.247 67.903-33.644 67.903-72.087v-33.476c-.001-25.172-14.869-48.026-37.963-58.259zm-161.219-30.34v-21.344c10.616 5.653 22.719 8.87 35.563 8.87 12.852 0 24.961-3.221 35.582-8.882v21.355l-35.581 31.061zm86.144-5.094v-26.749c14.455-12.945 23.93-31.332 25.178-51.91h6.085c1.637 0 3.215-.24 4.722-.654v42.023c.001 20.158-16.067 36.624-35.985 37.29zm25.351-93.659v-26.17h5.913c1.572 0 2.852 1.279 2.852 2.852v20.467c0 1.572-1.279 2.852-2.852 2.852h-5.913zm-74.992-134.637c22.865 0 44.369 8.906 60.55 25.076 16.171 16.171 25.077 37.671 25.077 60.539v8.507c-1.507-.414-3.085-.654-4.722-.654-15.362-.688-20.84 3.467-37.838 3.467-34.6 0-65.015-22.091-75.686-54.971-1.278-3.94-5.507-6.095-9.449-4.819-3.939 1.279-6.097 5.509-4.818 9.449 12.684 39.083 48.833 65.341 89.953 65.341 5.693 0 11.35-.509 16.908-1.512v34.571c0 33.594-27.327 60.924-60.916 60.924-33.595 0-60.926-27.33-60.926-60.924l.013-38.278c3.968-1.444 8.648-3.949 12.832-8.291 2.149-2.231 3.98-4.757 5.444-7.507 1.946-3.656.561-8.198-3.096-10.145-3.659-1.948-8.198-.559-10.145 3.097-.812 1.523-1.823 2.92-3.008 4.149-3.515 3.649-7.709 4.971-10.201 5.45h-12.741c-.973 0-1.92.099-2.851.25v-8.102c.002-47.21 38.411-85.617 85.62-85.617zm-85.618 111.309c.005-1.568 1.282-2.842 2.851-2.842h5.9v26.17h-5.9c-1.569 0-2.845-1.274-2.851-2.842zm0 79.697v-41.618c.931.15 1.878.25 2.851.25h6.056c1.25 20.59 10.736 38.986 25.208 51.932v26.611c-19.082-1.634-34.115-17.678-34.115-37.175zm233.296 164.459c0 28.15-20.106 51.533-47.054 56.327v-80.561c0-4.142-3.357-7.5-7.5-7.5s-7.5 3.358-7.5 7.5v81.475h-10.032c-3.791-38.818-36.607-69.258-76.405-69.258-39.808 0-72.63 30.455-76.407 69.288h-10.086v-81.505c0-4.142-3.357-7.5-7.5-7.5s-7.5 3.358-7.5 7.5v80.629c-27.035-4.704-47.235-28.109-47.235-56.355v-32.766c0-19.641 11.695-37.25 29.879-44.897l44.511-19.353 13.946 12.183c1.423 1.242 3.181 1.852 4.932 1.852 2.09 0 4.168-.868 5.651-2.566 2.725-3.119 2.405-7.857-.714-10.583l-8.591-7.505 14.541-6.322 39.512 34.507c1.413 1.234 3.173 1.851 4.934 1.851 1.76 0 3.52-.617 4.933-1.85l39.76-34.708 15.856 6.796-59.635 52.054-28.965-25.304c-3.12-2.724-7.856-2.405-10.583.714-2.725 3.119-2.405 7.857.714 10.583l29.588 25.847c2.636 2.303 5.94 3.454 9.246 3.454 3.304 0 6.607-1.15 9.241-3.449l65.692-57.342 43.817 18.78c17.59 7.794 28.955 25.265 28.955 44.508v33.476z"/><path d="m278.184 409.836-37.801 37.8-10.046-10.046c-2.93-2.929-7.678-2.929-10.607 0s-2.929 7.678 0 10.606l15.35 15.35c1.465 1.465 3.384 2.197 5.304 2.197 1.919 0 3.839-.732 5.303-2.197l43.104-43.103c2.93-2.929 2.93-7.677.001-10.606-2.931-2.929-7.679-2.93-10.608-.001z"/></g></svg>